<svg xmlns="http://www.w3.org/2000/svg" width="134" height="32" fill="none"><path fill="#fff" d="M52.512 13.441v-2.074q.941 0 1.767-.345a4.54 4.54 0 0 0 2.4-2.477q.345-.846.346-1.825 0-.978-.346-1.824a4.6 4.6 0 0 0-.96-1.478 4.3 4.3 0 0 0-1.44-.98 4.3 4.3 0 0 0-1.767-.364V0q1.979 0 3.495.864a6.1 6.1 0 0 1 2.4 2.362q.885 1.517.884 3.494 0 1.96-.884 3.476a6.2 6.2 0 0 1-2.4 2.38q-1.517.865-3.495.865m-2.784 0v-2.074h2.784v2.074zm-1.44 0V0h2.228v13.441zm1.44-11.367V0h2.784v2.074zM65.249 13.671q-1.402 0-2.496-.633a4.6 4.6 0 0 1-1.71-1.786q-.614-1.133-.614-2.611 0-1.48.634-2.612a4.6 4.6 0 0 1 1.728-1.766q1.095-.653 2.535-.653 1.267 0 2.304.672 1.037.653 1.632 1.9.614 1.25.614 2.977h-2.17q.02-1.248-.287-2.054-.288-.807-.845-1.191-.557-.403-1.325-.403-.806 0-1.383.365-.556.364-.864 1.075-.307.69-.307 1.747 0 .94.365 1.613.365.672.98 1.037.633.345 1.4.346.845 0 1.403-.384.556-.404.864-1.018l1.977.845q-.403.768-1.017 1.344-.615.576-1.479.883-.863.307-1.94.307M61.83 9.16l.02-1.709h6.912v1.71zM73.985 13.441l3.744-9.6h2.228L76 13.44zm-.154 0-3.974-9.6h2.208l3.763 9.6zM85.051 13.671q-1.401 0-2.496-.633a4.6 4.6 0 0 1-1.709-1.786q-.614-1.133-.614-2.611 0-1.48.633-2.612a4.6 4.6 0 0 1 1.728-1.766q1.095-.653 2.535-.653 1.267 0 2.304.672 1.037.653 1.632 1.9.615 1.25.615 2.977h-2.17q.02-1.248-.288-2.054-.288-.807-.845-1.191-.557-.403-1.325-.403-.806 0-1.382.365-.558.364-.864 1.075-.308.69-.308 1.747 0 .94.365 1.613.365.672.98 1.037.634.345 1.401.346.844 0 1.402-.384.557-.404.864-1.018l1.978.845q-.404.768-1.018 1.344t-1.478.883-1.94.307M81.633 9.16l.02-1.709h6.912v1.71zM91.052 13.441 91.072 0h2.15l-.02 13.441zM99.775 13.671q-1.46 0-2.592-.633a4.7 4.7 0 0 1-1.747-1.786q-.634-1.133-.634-2.611 0-1.48.615-2.612a4.54 4.54 0 0 1 1.747-1.766q1.133-.653 2.573-.653 1.459 0 2.573.653a4.54 4.54 0 0 1 1.747 1.766q.634 1.133.634 2.612 0 1.478-.634 2.611a4.7 4.7 0 0 1-1.747 1.786q-1.095.633-2.535.633m0-2.073q.768 0 1.344-.365.595-.384.922-1.056.346-.672.346-1.536t-.346-1.536a2.4 2.4 0 0 0-.941-1.037 2.46 2.46 0 0 0-1.363-.384q-.768 0-1.363.384-.595.364-.941 1.037-.327.672-.327 1.536t.327 1.536q.346.672.94 1.056.615.365 1.402.365M106.356 17.281V3.841h2.016l.135 1.766V17.28zm5.184-3.61q-1.21 0-2.092-.614-.865-.634-1.325-1.767-.462-1.132-.461-2.65 0-1.535.461-2.65.46-1.132 1.325-1.746.883-.634 2.092-.634 1.306 0 2.266.634.98.615 1.517 1.747.557 1.114.557 2.65 0 1.515-.557 2.65-.537 1.132-1.517 1.766-.96.614-2.266.614m-.537-1.958q.768 0 1.363-.384.596-.403.941-1.095.365-.69.365-1.593t-.346-1.594a2.53 2.53 0 0 0-.921-1.075q-.596-.384-1.383-.384-.73 0-1.306.384a2.6 2.6 0 0 0-.902 1.075q-.307.69-.307 1.594 0 .902.307 1.593.327.691.883 1.095a2.3 2.3 0 0 0 1.306.384M121.73 13.671q-1.401 0-2.496-.633a4.6 4.6 0 0 1-1.709-1.786q-.614-1.133-.614-2.611 0-1.48.633-2.612a4.6 4.6 0 0 1 1.728-1.766q1.095-.653 2.535-.653 1.267 0 2.304.672 1.038.653 1.632 1.9.615 1.25.615 2.977h-2.17q.02-1.248-.288-2.054-.288-.807-.845-1.191-.557-.403-1.325-.403-.806 0-1.382.365-.556.364-.864 1.075-.308.69-.308 1.747 0 .94.365 1.613.365.672.98 1.037.633.345 1.401.346.846 0 1.402-.384a2.8 2.8 0 0 0 .864-1.018l1.978.845q-.403.768-1.018 1.344a4.2 4.2 0 0 1-1.478.883q-.864.307-1.94.307m-3.418-4.512.02-1.709h6.912v1.71zM129.152 8.333q0-1.555.595-2.553.595-.999 1.536-1.479.96-.5 1.997-.5v2.055q-.882 0-1.67.25-.768.231-1.248.768-.48.538-.48 1.421zm-1.421 5.108v-9.6h2.151v9.6zM57.6 31.77 52.36 18.329h2.227l5.377 13.44zm-10.733 0 5.357-13.441h2.247l-5.242 13.44zm2.516-3.303v-1.978h8.045v1.978zM62.981 29.081l-1.305-1.478 4.992-5.434h2.592zm-2.054 2.689V18.329h2.15v13.44zm6.106 0-3.38-4.974 1.402-1.497 4.532 6.47zM76.001 31.77l-.096-4.935q0-.98-.211-1.632-.21-.653-.653-.999-.441-.345-1.19-.345a2.4 2.4 0 0 0-1.19.288q-.519.288-.865.883l-1.92-.672q.327-.635.845-1.19.518-.558 1.306-.884.787-.345 1.881-.345 1.383 0 2.305.518a3.2 3.2 0 0 1 1.401 1.536q.46 1.018.461 2.515v5.262zm-2.726.23q-1.71 0-2.67-.768-.94-.768-.94-2.17 0-1.497.998-2.285 1.019-.787 2.823-.787H76.5l.02 1.651h-2.362q-1.287 0-1.805.365-.5.345-.5.999 0 .555.442.883.462.307 1.268.307.71 0 1.229-.326a2.37 2.37 0 0 0 .825-.884q.288-.556.288-1.19h.807q0 1.959-.845 3.091Q75.04 32 73.275 32M86.817 31.77l-.096-1.786V18.329h2.131v13.44zm-3.13.23q-1.305 0-2.285-.614-.96-.634-1.517-1.767-.537-1.133-.538-2.65 0-1.536.538-2.65.557-1.132 1.517-1.747.98-.633 2.285-.633 1.21 0 2.074.633.883.615 1.344 1.747.46 1.114.46 2.65 0 1.517-.46 2.65t-1.344 1.767q-.864.615-2.074.614m.538-1.959a2.2 2.2 0 0 0 1.286-.384q.577-.402.883-1.094.327-.69.327-1.594 0-.902-.327-1.594-.306-.69-.883-1.075-.556-.384-1.305-.384a2.46 2.46 0 0 0-1.364.384q-.595.384-.94 1.075-.328.692-.346 1.594.02.903.345 1.594.345.691.941 1.094.614.384 1.383.384M95.243 32q-1.403 0-2.496-.634a4.6 4.6 0 0 1-1.71-1.785q-.614-1.134-.614-2.612t.634-2.611a4.6 4.6 0 0 1 1.728-1.767q1.095-.652 2.535-.652 1.267 0 2.304.671 1.037.654 1.632 1.902.614 1.247.614 2.976H97.7q.02-1.248-.287-2.055-.288-.806-.845-1.19-.557-.404-1.325-.404-.807 0-1.383.365-.556.365-.864 1.075-.306.692-.307 1.748 0 .94.365 1.613.365.672.98 1.037.633.345 1.4.345.845 0 1.403-.384.556-.404.864-1.017l1.977.844q-.403.768-1.017 1.345-.615.576-1.479.883-.863.307-1.94.307m-3.418-4.512.02-1.71h6.912v1.71zM101.244 31.77v-9.601h2.016l.134 1.766v7.835zm6.509 0v-4.916l2.151-.576v5.492zm6.528 0v-4.916l2.132-.576v5.492zm-6.528-4.916q0-1.152-.269-1.767-.249-.633-.729-.883-.462-.25-1.095-.25-1.076-.018-1.67.711-.596.73-.596 2.093h-.806q0-1.516.441-2.592.442-1.095 1.268-1.651.825-.576 1.958-.576 1.747 0 2.689 1.075.96 1.056.96 3.264zm6.528 0q0-1.152-.268-1.767-.27-.633-.749-.883a2.2 2.2 0 0 0-1.075-.25q-1.095-.018-1.69.711-.595.73-.595 2.093h-.807q0-1.516.442-2.592.442-1.095 1.267-1.651.825-.576 1.959-.576 1.747 0 2.707 1.075.96 1.056.941 3.264zM118.358 31.77l.019-9.601h2.131l-.019 9.6zm1.075-11.425q-.518 0-.902-.365a1.26 1.26 0 0 1-.365-.902q0-.518.365-.884.384-.365.902-.365.519 0 .883.365.384.365.384.884 0 .518-.384.902a1.2 1.2 0 0 1-.883.365M127.037 32q-1.402 0-2.496-.634a4.6 4.6 0 0 1-1.709-1.785q-.615-1.134-.615-2.612t.634-2.611a4.6 4.6 0 0 1 1.728-1.767q1.095-.652 2.535-.652 1.268 0 2.304.671 1.036.654 1.632 1.902.615 1.247.614 2.976h-2.169q.018-1.248-.288-2.055-.288-.806-.845-1.19-.557-.404-1.325-.404-.807 0-1.383.365-.556.365-.864 1.075-.306.692-.307 1.748 0 .94.365 1.613.365.672.979 1.037.634.345 1.402.345.844 0 1.402-.384a2.8 2.8 0 0 0 .864-1.017l1.977.844q-.403.768-1.017 1.345-.615.576-1.479.883t-1.939.307m-3.418-4.512.019-1.71h6.913v1.71z"/><path fill="#FD5B4F" d="M19.927 20.45a.175.175 0 0 0 .25.13l7.277-3.572a.17.17 0 0 0 .092-.114c.092-.369.122-.734.122-1.128 0-.436-.06-.834-.12-1.185a.18.18 0 0 0-.095-.128l-7.277-3.538a.175.175 0 0 0-.249.129v.006c-.029.167-.059.349-.06.533-.03.187-.03.403-.03.601v.01c0 .073.008.154.014.23l.002.016a3 3 0 0 1 .016.272q.018.113.026.234l.001.01c.008.082.015.172.032.253a.18.18 0 0 0 .1.124l5.384 2.4-5.386 2.5a.18.18 0 0 0-.098.124c-.029.14-.06.323-.061.511-.03.185-.03.368-.03.567v.008c0 .292.03.617.09 1.007"/><path fill="#FD5B4F" fill-rule="evenodd" d="M17.512 7.177c.05.026.083.074.091.129.06.39.09.714.09 1.006v.009c0 .198 0 .382-.03.566 0 .188-.032.37-.061.512a.18.18 0 0 1-.098.123l-5.386 2.5 5.384 2.4a.18.18 0 0 1 .1.124c.017.082.025.171.032.253v.01q.01.12.027.234l.003.029q.001.119.013.243l.002.016c.007.076.014.157.014.231v.01c0 .198 0 .414-.03.6 0 .185-.031.367-.059.533v.007a.175.175 0 0 1-.25.128l-7.277-3.537a.17.17 0 0 1-.096-.129 7 7 0 0 1-.118-1.184c0-.394.03-.76.121-1.128a.18.18 0 0 1 .093-.114l7.277-3.573a.17.17 0 0 1 .158.002" clip-rule="evenodd"/><path fill="#FD5B4F" fill-rule="evenodd" d="M33.602.786H3.928A3.93 3.93 0 0 0 0 4.713v18.329a3.93 3.93 0 0 0 3.928 3.928h29.674a3.93 3.93 0 0 0 3.928-3.928V4.713A3.93 3.93 0 0 0 33.602.786M2.182 4.713c0-.964.781-1.745 1.746-1.745h29.674c.965 0 1.746.781 1.746 1.745v18.329c0 .964-.782 1.746-1.746 1.746H3.928a1.746 1.746 0 0 1-1.746-1.746z" clip-rule="evenodd"/><path fill="#FD5B4F" d="M4.146 29.152a1.091 1.091 0 1 0 0 2.182h29.238a1.091 1.091 0 0 0 0-2.182z"/></svg>