<svg xmlns="http://www.w3.org/2000/svg" width="216" height="41" fill="none"><g clip-path="url(#a)"><path fill="#F64E85" d="M19.02 22.338c-2.405-.3-6.99 3.813-8.766 7.911-.458 1.055-1.307 3.086-.67 5.122.144.457.979 2.876 3.914 3.305q.062.01.123.016c2.047.256 4.922-.446 6.659-2.362 1.72-1.899 1.828-4.417 1.834-5.376q.001-.405-.014-.775c-.09-2.558-.587-5.436-2.053-7.306-.306-.39-.598-.46-.932-.522l-.096-.015"/><path fill="#F78A4C" d="M10.71 12.725c-1.105-.137-3.006-.261-5.266.84-.551.268-3.492 1.762-4.803 4.722-.917 2.07-.983 4.735.697 5.897.5.345 1.107.527 1.74.606 1.436.18 3-.171 3.743-.355q.45-.114.87-.232c2.88-.814 6.238-2.11 8.743-4.06.523-.405.685-.707.847-1.05 1.15-2.419-2.178-5.767-6.306-6.33l-.263-.035"/><path fill="#A0F0FD" d="M26.936.05c-2.047-.255-4.922.449-6.659 2.365-1.722 1.898-1.83 4.417-1.834 5.375-.003.27.005.528.012.776.093 2.557.589 5.436 2.057 7.306.304.39.596.462.932.521q.047.008.095.015c2.405.3 6.987-3.813 8.763-7.91.459-1.056 1.308-3.087.67-5.121C30.827 2.92 29.993.499 27.06.07q-.062-.01-.124-.016"/><path fill="#8732F8" d="M37.477 13.954c-1.434-.179-3 .172-3.742.357-.298.074-.591.154-.869.232-2.884.815-6.238 2.112-8.745 4.06-.521.407-.682.707-.847 1.05-1.148 2.42 2.18 5.77 6.308 6.33q.128.019.276.037c1.105.137 3 .255 5.254-.843.552-.269 3.49-1.76 4.802-4.721.917-2.07.984-4.735-.696-5.895-.5-.345-1.108-.527-1.741-.607"/><path fill="#CB4A74" d="M25.859 26.515a5 5 0 0 0-.55-.038 1.14 1.14 0 0 0-.626.164c-1.256.664-1.838 3.317-1.1 5.023.189.433.565 1.257 1.627 1.595.081.025.28.085.568.12.567.071 1.479.05 2.484-.511 1.059-.592 2.16-1.747 2.239-2.852.076-1.074-.826-1.786-1.186-2.044q-.15-.11-.298-.205c-.875-.57-1.979-1.105-3.158-1.252"/><path fill="#D4ED77" d="M9.773 25.056c-1.1-.137-2.778.215-4.161 1-.538.304-1.565.903-2.243 2.026-.153.252-.943 1.616-.429 2.84.284.676.951 1.278 1.815 1.385.231.029.478.023.735-.028 1.178-.23 2.23-1.305 2.62-1.728q.165-.177.313-.347c1.022-1.163 2.078-2.61 2.494-3.953.087-.28.046-.414-.007-.559-.133-.355-.554-.564-1.137-.637"/><path fill="#FFD331" d="M14.778 5.363c-.568-.07-1.479-.049-2.485.513-1.06.591-2.16 1.746-2.238 2.85-.076 1.075.826 1.787 1.186 2.047q.153.109.299.203c.875.57 1.98 1.105 3.16 1.253q.271.034.547.04c.288.004.45-.072.627-.167 1.256-.663 1.837-3.315 1.098-5.021-.188-.433-.563-1.258-1.627-1.595a3 3 0 0 0-.566-.121"/><path fill="#66A0D1" d="M35.8 6.434a2.3 2.3 0 0 0-.734.029c-1.177.231-2.228 1.307-2.62 1.728q-.166.179-.313.346c-1.02 1.162-2.076 2.61-2.493 3.954-.088.28-.05.415.006.56.133.355.555.564 1.138.638 1.102.137 2.778-.216 4.161-1.001.538-.305 1.564-.902 2.243-2.027.153-.252.943-1.614.43-2.84-.286-.676-.952-1.278-1.816-1.385"/><path fill="#fff" d="M52.106 32.283c-2.391 0-2.721-.55-2.721-1.692 0-3.053.11-6.473.11-9.673 0-4.34-.183-9.013-.183-12.874 0-.882.442-1.398 1.619-1.398.699 0 5.185.038 9.196.038h4.413c1.14 0 1.471.367 1.471 2.648 0 2.464-.22 2.796-1.508 2.796-.81-.037-3.458 0-5.85 0h-2.758v4.745c2.759-.038 4.966-.11 7.136-.11 1.104 0 1.729.294 1.729 3.052 0 1.766-.368 2.317-1.361 2.354-2.796.148-4.635.184-7.504.221v7.467c0 1.802-.331 2.426-3.789 2.426M77.338 13.635c5.518 0 9.049 3.457 9.049 9.232s-4.303 9.894-9.785 9.894c-5.481 0-9.269-3.53-9.269-9.196 0-6.253 4.561-9.93 10.004-9.93zm-.442 13.242c1.95 0 3.274-1.471 3.274-3.863 0-2.39-1.398-3.494-3.236-3.494-1.95 0-3.42 1.36-3.42 3.898 0 2.28 1.581 3.457 3.384 3.457zM96.317 8.339c1.36 0 1.655.845 1.655 2.61 0 .662-.038 1.803-.074 3.274h4.524c1.215 0 1.434.516 1.434 2.611s-.221 2.575-1.949 2.575h-4.156c0 1.509-.038 3.053-.038 4.635 0 2.28.81 2.942 2.648 3.31.772.147.956.625.956 1.508 0 2.133-.699 3.862-2.06 3.862-6.362 0-7.724-4.009-7.724-8.313 0-1.913 0-3.53.037-5.002H89.18c-1.177 0-1.434-.551-1.434-2.575s.221-2.61 1.434-2.61h2.502c.037-1.067.11-2.098.148-3.09.147-2.023 2.648-2.797 4.486-2.797zM115.15 13.635c5.517 0 9.048 3.457 9.048 9.232s-4.303 9.894-9.784 9.894-9.269-3.53-9.269-9.196c0-6.253 4.561-9.93 10.003-9.93zm-.442 13.242c1.949 0 3.274-1.471 3.274-3.863 0-2.39-1.398-3.494-3.237-3.494-1.949 0-3.42 1.36-3.42 3.898 0 2.28 1.582 3.457 3.384 3.457zM128.757 38.978c0-.994.589-3.825 1.839-3.825.883 0 2.316.55 4.083.55 2.502 0 3.936-.955 4.267-4.486.038-.331.074-1.03.074-1.949-1.288 1.765-3.091 2.575-5.261 2.575-4.561 0-7.209-3.384-7.209-8.68 0-5.702 3.568-9.453 8.386-9.453 1.692 0 3.09.55 4.119 1.397v-.22c0-1.288 1.398-1.582 4.084-1.582 1.728 0 2.207.515 2.207 1.949 0 1.949-.551 12.065-.956 16.074-.736 7.282-3.972 9.674-9.269 9.674-1.802 0-3.678-.295-4.891-.589-1.066-.294-1.471-.588-1.471-1.434zm7.062-12.763c1.25 0 2.942.038 3.126-5.849-.626-.625-1.728-1.066-2.796-1.066-2.391 0-3.31 1.544-3.31 3.347 0 1.986 1.14 3.568 2.98 3.568M153.879 13.929c1.655 0 1.876.367 1.876 1.214 0 1.03-.11 2.575-.256 4.193.955-3.604 2.721-5.59 5.627-5.59.699 0 1.104.11 1.545.33.404.185.661.479.661 1.031 0 1.472-1.103 5.59-2.464 5.59-.442 0-.956-.293-2.133-.293s-2.097.294-2.648 1.949c-.294.956-.405 2.316-.405 6.068 0 3.237-.699 3.973-3.973 3.973-1.398 0-2.354-.405-2.354-1.913 0-3.09.222-11.917.222-14.787 0-1.47.845-1.765 4.302-1.765M178.559 32.614c-1.692 0-1.986-.626-2.06-1.545l-.11-1.325c-1.288 2.097-3.163 3.016-5.444 3.016-4.562 0-7.21-3.568-7.21-9.159 0-5.959 3.568-9.968 8.387-9.968 1.765 0 3.2.626 4.267 1.582.405-1.14 1.544-1.398 3.789-1.398 1.949 0 2.317.588 2.317 2.022 0 2.097-.038 4.157-.038 6.143 0 6.878.478 7.137.478 8.792 0 1.36-1.728 1.838-4.377 1.838zm-5.555-5.739c1.251 0 2.943 0 3.126-6.216-.625-.662-1.728-1.14-2.795-1.14-2.392 0-3.31 1.655-3.31 3.569 0 2.097 1.139 3.789 2.979 3.789zM191.284 13.929c1.655 0 2.097.478 2.097 1.36 0 .627-.037 1.399-.11 2.244.956-2.61 2.721-3.898 5.333-3.898s4.487 1.434 5.297 4.267c.955-2.759 2.906-4.267 5.665-4.267 3.347 0 5.627 2.575 5.627 7.393 0 2.648-.183 6.951-.442 9.858-.11 1.177-.515 1.581-1.838 1.581-3.863 0-4.303-.588-4.303-2.097 0-2.464.294-2.501.294-5.922 0-3.604-.662-4.928-2.207-4.928-2.281 0-2.538 2.316-2.575 5.26-.074 2.61-.148 4.083-.148 5.406 0 2.023-1.214 2.17-3.568 2.17-1.987 0-2.686-.882-2.686-2.685 0-2.427.221-4.818.221-6.216 0-2.87-.809-3.935-1.986-3.935-1.325 0-2.244.367-2.538 4.377-.148 1.288-.11 2.097-.11 4.414 0 3.457-.442 4.083-3.31 4.083-2.502 0-3.016-.551-3.016-2.17 0-3.604.221-10.336.221-14.271 0-1.728.81-2.022 4.084-2.022z"/></g><defs><clipPath id="a"><path fill="#fff" d="M0 0h215.194v41H0z"/></clipPath></defs></svg>